<svg width="12" height="13" viewBox="0 0 12 13" fill="none" xmlns="http://www.w3.org/2000/svg">
<path d="M11.7396 6.14328C11.9758 5.9135 12.0592 5.57626 11.9573 5.26277C11.8552 4.94927 11.5892 4.72549 11.2624 4.678L8.35677 4.25657C8.23302 4.23858 8.12609 4.16111 8.07082 4.04909L6.77181 1.42098C6.62596 1.12572 6.32992 0.94223 6 0.94223C5.67032 0.94223 5.37428 1.12572 5.22843 1.42098L3.92918 4.04909C3.87391 4.16111 3.76674 4.23858 3.64299 4.25657L0.737401 4.67824C0.410847 4.72549 0.144845 4.94927 0.0427218 5.26277C-0.0591613 5.57626 0.0242195 5.9135 0.260425 6.14328L2.36272 8.18878C2.45235 8.27609 2.49344 8.40177 2.4723 8.52458L1.9761 11.4132C1.92035 11.7377 2.05131 12.0593 2.31827 12.2531C2.58499 12.4472 2.93221 12.4724 3.22465 12.3186L5.82315 10.9548C5.93392 10.8968 6.06608 10.8968 6.17685 10.9548L8.77559 12.3186C8.90247 12.3853 9.03991 12.4182 9.17664 12.4182C9.35421 12.4182 9.53107 12.3628 9.68197 12.2531C9.94893 12.0593 10.0799 11.7377 10.0241 11.4132L9.5277 8.52482C9.50656 8.40177 9.54765 8.27632 9.63727 8.18902L11.7396 6.14328ZM9.05433 8.60589L9.55053 11.4942C9.57552 11.6396 9.51905 11.7785 9.39939 11.8653C9.27948 11.9519 9.13026 11.9624 8.9993 11.8943L6.40056 10.5303C6.27537 10.4648 6.13745 10.4317 6 10.4317C5.86255 10.4317 5.72487 10.4648 5.59944 10.5305L3.00118 11.8943C2.86974 11.9624 2.72052 11.9519 2.60085 11.8653C2.48119 11.7785 2.42496 11.6398 2.44971 11.4942L2.94591 8.60589C2.99373 8.32717 2.90122 8.0427 2.69841 7.84554L0.59587 5.79981C0.489902 5.69667 0.453859 5.55131 0.499754 5.411C0.545409 5.27044 0.660028 5.17402 0.806364 5.15267L3.71171 4.73124C3.99213 4.69071 4.23459 4.51513 4.35978 4.26137L5.65903 1.63326C5.72439 1.50086 5.85198 1.42194 5.99976 1.42194C6.14778 1.42194 6.27513 1.50086 6.34073 1.63326L7.63998 4.26137C7.76517 4.51513 8.00739 4.69071 8.2878 4.73124L11.1934 5.15267C11.3397 5.17402 11.4544 5.27044 11.5 5.411C11.5457 5.55131 11.5099 5.69667 11.4039 5.79981L9.30159 7.8453C9.09878 8.0427 9.00627 8.32693 9.05433 8.60589Z" fill="#9D2929"/>
</svg>
