<svg width="12" height="13" viewBox="0 0 12 13" fill="none" xmlns="http://www.w3.org/2000/svg">
<path d="M11.7396 6.14294C11.9758 5.91316 12.0592 5.57593 11.9573 5.26244C11.8552 4.94895 11.5892 4.72517 11.2624 4.67768L8.35684 4.25626C8.23309 4.23827 8.12617 4.1608 8.0709 4.04879L6.77192 1.42097C6.62606 1.12572 6.33003 0.94223 6.00012 0.94223C5.67045 0.94223 5.37442 1.12572 5.22856 1.42097L3.92934 4.04903C3.87407 4.16104 3.76691 4.23851 3.64316 4.2565L0.737627 4.67792C0.411079 4.72517 0.144842 4.94919 0.042721 5.26268C-0.0591601 5.57617 0.024219 5.9134 0.26042 6.14318L2.36268 8.18863C2.4523 8.27594 2.49339 8.40162 2.47225 8.52442L1.9763 11.4127C1.93233 11.667 1.99913 11.9142 2.16396 12.1092C2.42011 12.4131 2.86728 12.5057 3.22482 12.3182L5.82327 10.9544C5.93188 10.8975 6.0686 10.898 6.17697 10.9544L8.77566 12.3182C8.90205 12.3846 9.03685 12.4182 9.17597 12.4182C9.42996 12.4182 9.67072 12.3054 9.83628 12.1092C10.0014 11.9142 10.0679 11.6665 10.0239 11.4127L9.52775 8.52442C9.50661 8.40138 9.5477 8.27594 9.63732 8.18863L11.7396 6.14294Z" fill="#9D2929"/>
</svg>
